<svg width="2000px" height="943px"
 viewBox="0.00 0.00 820.99 387.36" xmlns="http://www.w3.org/2000/svg" xmlns:xlink="http://www.w3.org/1999/xlink">
<g id="graph0" class="graph" transform="scale(1.0 1.0) rotate(0) translate(4 383.36)">
<title>ContextMapGraph</title>
<polygon fill="white" stroke="transparent" points="-4,4 -4,-383.36 816.99,-383.36 816.99,4 -4,4"/>
<!-- AuthorizationContext -->
<g id="node1" class="node">
<title>AuthorizationContext</title>
<polygon fill="none" stroke="black" stroke-width="2" points="292.68,-349.76 288.52,-352.38 284.02,-354.92 279.18,-357.39 274.02,-359.77 268.56,-362.05 262.82,-364.22 256.82,-366.27 250.58,-368.2 244.12,-369.99 237.46,-371.64 230.62,-373.15 223.61,-374.51 216.47,-375.71 209.2,-376.75 201.83,-377.63 194.39,-378.35 186.88,-378.9 179.32,-379.28 171.75,-379.5 164.17,-379.55 156.6,-379.44 149.06,-379.18 141.57,-378.75 134.14,-378.18 126.79,-377.46 119.54,-376.6 112.4,-375.6 105.39,-374.47 98.52,-373.23 91.8,-371.86 85.26,-370.39 78.89,-368.82 72.72,-367.16 66.76,-365.42 61.02,-363.6 55.51,-361.71 50.24,-359.76 45.23,-357.76 40.48,-355.72 36.01,-353.64 31.83,-351.53 27.94,-349.4 24.36,-347.25 21.1,-345.1 18.16,-342.94 15.55,-340.78 13.28,-338.63 11.37,-336.49 9.81,-334.37 8.61,-332.26 7.78,-330.19 7.33,-328.13 7.25,-326.11 7.56,-324.12 8.26,-322.16 9.34,-320.24 10.81,-318.36 12.68,-316.52 14.93,-314.72 17.57,-312.96 20.6,-311.24 24.02,-309.57 27.81,-307.94 31.97,-306.36 36.5,-304.82 41.38,-303.33 46.61,-301.9 52.17,-300.51 58.06,-299.18 64.25,-297.89 70.74,-296.67 77.51,-295.51 84.53,-294.4 91.8,-293.36 99.29,-292.38 106.97,-291.48 114.84,-290.64 122.86,-289.89 131.01,-289.21 139.27,-288.61 147.61,-288.11 156,-287.69 164.42,-287.37 172.84,-287.15 181.24,-287.03 189.58,-287.02 197.85,-287.12 206,-287.33 214.02,-287.66 221.88,-288.11 229.56,-288.68 237.02,-289.37 244.24,-290.19 251.19,-291.14 257.87,-292.22 264.23,-293.42 270.27,-294.76 275.96,-296.22 281.28,-297.8 286.21,-299.51 290.75,-301.33 294.88,-303.27 298.58,-305.32 301.84,-307.48 304.66,-309.73 307.03,-312.08 308.94,-314.52 310.39,-317.03 311.38,-319.61 311.9,-322.26 311.96,-324.95 311.56,-327.69 310.7,-330.45 309.4,-333.24 307.65,-336.03 305.48,-338.83 302.88,-341.61 299.87,-344.36 296.46,-347.09 292.68,-349.76"/>
<text text-anchor="middle" x="155.99" y="-326.87" font-family="sans-serif" font-size="16.00">AuthorizationContext</text>
</g>
<!-- FilesManagementContext -->
<g id="node2" class="node">
<title>FilesManagementContext</title>
<polygon fill="none" stroke="black" stroke-width="2" points="370.65,-226.03 360.48,-224.69 350.6,-223.25 341.07,-221.72 331.91,-220.1 323.16,-218.4 314.86,-216.63 307.05,-214.78 299.75,-212.88 293,-210.91 286.81,-208.89 281.22,-206.83 276.24,-204.73 271.89,-202.6 268.18,-200.44 265.13,-198.26 262.73,-196.07 261,-193.86 259.93,-191.65 259.52,-189.45 259.76,-187.25 260.65,-185.06 262.18,-182.89 264.31,-180.74 267.05,-178.62 270.37,-176.53 274.24,-174.48 278.65,-172.46 283.56,-170.49 288.95,-168.56 294.79,-166.69 301.04,-164.87 307.68,-163.11 314.67,-161.41 321.98,-159.77 329.58,-158.2 337.44,-156.7 345.51,-155.28 353.78,-153.93 362.21,-152.66 370.77,-151.48 379.42,-150.38 388.15,-149.36 396.92,-148.44 405.71,-147.6 414.49,-146.86 423.25,-146.22 431.95,-145.68 440.59,-145.23 449.14,-144.89 457.59,-144.66 465.92,-144.52 474.13,-144.5 482.19,-144.58 490.1,-144.78 497.85,-145.08 505.43,-145.49 512.84,-146.02 520.07,-146.66 527.11,-147.4 533.96,-148.26 540.61,-149.23 547.07,-150.3 553.33,-151.49 559.38,-152.78 565.22,-154.17 570.85,-155.66 576.26,-157.25 581.45,-158.93 586.41,-160.71 591.13,-162.57 595.61,-164.51 599.84,-166.53 603.82,-168.63 607.53,-170.78 610.96,-173 614.1,-175.28 616.94,-177.6 619.47,-179.96 621.68,-182.36 623.54,-184.78 625.06,-187.22 626.2,-189.68 626.97,-192.13 627.34,-194.59 627.31,-197.02 626.85,-199.44 625.95,-201.83 624.61,-204.18 622.82,-206.49 620.55,-208.74 617.81,-210.93 614.59,-213.06 610.88,-215.11 606.67,-217.07 601.98,-218.95 596.79,-220.73 591.12,-222.41 584.96,-223.98 578.33,-225.44 571.23,-226.78 563.69,-228 555.71,-229.1 547.31,-230.06 538.52,-230.89 529.36,-231.59 519.86,-232.16 510.05,-232.58 499.95,-232.87 489.6,-233.02 479.04,-233.03 468.31,-232.91 457.43,-232.65 446.47,-232.26 435.45,-231.74 424.42,-231.09 413.42,-230.31 402.5,-229.41 391.7,-228.4 381.07,-227.27 370.65,-226.03"/>
<text text-anchor="middle" x="454.99" y="-183.63" font-family="sans-serif" font-size="16.00">FilesManagementContext</text>
</g>
<!-- AuthorizationContext&#45;&gt;FilesManagementContext -->
<g id="edge1" class="edge">
<title>AuthorizationContext&#45;&gt;FilesManagementContext</title>
<path fill="none" stroke="black" stroke-width="2" d="M240.47,-289.76C282.43,-269.94 332.88,-246.11 374.31,-226.54"/>
<text text-anchor="middle" x="368.49" y="-254.38" font-family="sans-serif" font-size="12.00">Customer/Supplier</text>
<polygon fill="white" stroke="transparent" points="367.31,-217.54 367.31,-234.54 381.31,-234.54 381.31,-217.54 367.31,-217.54"/>
<text text-anchor="start" x="369.31" y="-222.94" font-family="sans-serif" font-size="12.00">D</text>
<polygon fill="white" stroke="transparent" points="233.47,-280.76 233.47,-297.76 247.47,-297.76 247.47,-280.76 233.47,-280.76"/>
<text text-anchor="start" x="235.47" y="-286.16" font-family="sans-serif" font-size="12.00">U</text>
</g>
<!-- QueryContext -->
<g id="node3" class="node">
<title>QueryContext</title>
<polygon fill="none" stroke="black" stroke-width="2" points="390.04,-82.1 384.06,-80.46 378.29,-78.74 372.77,-76.93 367.51,-75.05 362.53,-73.1 357.87,-71.09 353.52,-69.03 349.52,-66.92 345.88,-64.76 342.62,-62.58 339.74,-60.37 337.26,-58.14 335.18,-55.89 333.51,-53.64 332.27,-51.39 331.44,-49.15 331.03,-46.91 331.04,-44.69 331.46,-42.5 332.3,-40.33 333.53,-38.19 335.16,-36.09 337.16,-34.02 339.54,-32.01 342.27,-30.04 345.34,-28.12 348.74,-26.26 352.43,-24.46 356.42,-22.71 360.66,-21.03 365.16,-19.42 369.88,-17.88 374.8,-16.41 379.9,-15.01 385.16,-13.69 390.56,-12.44 396.08,-11.28 401.7,-10.2 407.39,-9.2 413.14,-8.28 418.92,-7.45 424.72,-6.71 430.52,-6.07 436.3,-5.51 442.05,-5.04 447.76,-4.67 453.4,-4.4 458.97,-4.22 464.45,-4.14 469.83,-4.17 475.11,-4.29 480.28,-4.51 485.32,-4.84 490.24,-5.27 495.01,-5.81 499.65,-6.45 504.15,-7.2 508.5,-8.04 512.69,-9 516.74,-10.06 520.62,-11.22 524.35,-12.48 527.92,-13.84 531.33,-15.3 534.57,-16.85 537.65,-18.5 540.56,-20.24 543.3,-22.07 545.87,-23.97 548.26,-25.96 550.48,-28.02 552.52,-30.15 554.37,-32.34 556.04,-34.59 557.51,-36.9 558.78,-39.24 559.85,-41.63 560.71,-44.04 561.36,-46.48 561.79,-48.94 561.98,-51.4 561.95,-53.87 561.67,-56.32 561.15,-58.76 560.37,-61.18 559.34,-63.55 558.04,-65.89 556.47,-68.18 554.63,-70.41 552.51,-72.57 550.11,-74.66 547.42,-76.66 544.46,-78.58 541.21,-80.4 537.68,-82.12 533.86,-83.72 529.78,-85.21 525.42,-86.58 520.8,-87.82 515.92,-88.94 510.8,-89.91 505.45,-90.75 499.87,-91.45 494.09,-92.01 488.11,-92.43 481.97,-92.69 475.66,-92.82 469.22,-92.8 462.67,-92.63 456.03,-92.32 449.32,-91.88 442.56,-91.29 435.79,-90.57 429.02,-89.71 422.28,-88.73 415.61,-87.63 409.02,-86.41 402.54,-85.08 396.21,-83.64 390.04,-82.1"/>
<text text-anchor="middle" x="454.99" y="-42.64" font-family="sans-serif" font-size="16.00">QueryContext</text>
</g>
<!-- AuthorizationContext&#45;&gt;QueryContext -->
<g id="edge2" class="edge">
<title>AuthorizationContext&#45;&gt;QueryContext</title>
<path fill="none" stroke="black" stroke-width="2" d="M125.04,-289.6C97.55,-248.78 66.5,-185.44 99.99,-141.88 129.57,-103.39 249.53,-77.28 341.9,-62.44"/>
<text text-anchor="middle" x="175.49" y="-184.33" font-family="sans-serif" font-size="12.00"> &#160;&#160;&#160;&#160;&#160;&#160;&#160;&#160;&#160;&#160;&#160;&#160;&#160;&#160;&#160;&#160;&#160;&#160;&#160;&#160;&#160;&#160;&#160;&#160;&#160;&#160;&#160;&#160;&#160;&#160;&#160;&#160;&#160;&#160;&#160;&#160;&#160;&#160;&#160;</text>
<polygon fill="white" stroke="transparent" points="322.9,-52.44 322.9,-71.44 338.9,-71.44 338.9,-52.44 322.9,-52.44"/>
<polyline fill="none" stroke="black" points="338.9,-52.44 338.9,-71.44 "/>
<text text-anchor="start" x="325.9" y="-58.84" font-family="sans-serif" font-size="12.00">D</text>
<polygon fill="white" stroke="transparent" points="338.9,-52.44 338.9,-71.44 360.9,-71.44 360.9,-52.44 338.9,-52.44"/>
<polygon fill="none" stroke="black" points="338.9,-52.44 338.9,-71.44 360.9,-71.44 360.9,-52.44 338.9,-52.44"/>
<text text-anchor="start" x="341.9" y="-58.84" font-family="sans-serif" font-size="12.00">CF</text>
<polygon fill="white" stroke="transparent" points="90.04,-279.6 90.04,-298.6 106.04,-298.6 106.04,-279.6 90.04,-279.6"/>
<polyline fill="none" stroke="black" points="106.04,-279.6 106.04,-298.6 "/>
<text text-anchor="start" x="93.04" y="-286" font-family="sans-serif" font-size="12.00">U</text>
<polygon fill="white" stroke="transparent" points="106.04,-279.6 106.04,-298.6 161.04,-298.6 161.04,-279.6 106.04,-279.6"/>
<polygon fill="none" stroke="black" points="106.04,-279.6 106.04,-298.6 161.04,-298.6 161.04,-279.6 106.04,-279.6"/>
<text text-anchor="start" x="109.04" y="-286" font-family="sans-serif" font-size="12.00">OHS, PL</text>
</g>
<!-- FilesManagementContext&#45;&gt;QueryContext -->
<g id="edge3" class="edge">
<title>FilesManagementContext&#45;&gt;QueryContext</title>
<path fill="none" stroke="black" stroke-width="2" d="M454.99,-144.73C454.99,-128.26 454.99,-109.29 454.99,-92.5"/>
<text text-anchor="middle" x="530.49" y="-114.28" font-family="sans-serif" font-size="12.00"> &#160;&#160;&#160;&#160;&#160;&#160;&#160;&#160;&#160;&#160;&#160;&#160;&#160;&#160;&#160;&#160;&#160;&#160;&#160;&#160;&#160;&#160;&#160;&#160;&#160;&#160;&#160;&#160;&#160;&#160;&#160;&#160;&#160;&#160;&#160;&#160;&#160;&#160;&#160;</text>
<polygon fill="white" stroke="transparent" points="435.99,-82.5 435.99,-101.5 451.99,-101.5 451.99,-82.5 435.99,-82.5"/>
<polyline fill="none" stroke="black" points="451.99,-82.5 451.99,-101.5 "/>
<text text-anchor="start" x="438.99" y="-88.9" font-family="sans-serif" font-size="12.00">D</text>
<polygon fill="white" stroke="transparent" points="451.99,-82.5 451.99,-101.5 473.99,-101.5 473.99,-82.5 451.99,-82.5"/>
<polygon fill="none" stroke="black" points="451.99,-82.5 451.99,-101.5 473.99,-101.5 473.99,-82.5 451.99,-82.5"/>
<text text-anchor="start" x="454.99" y="-88.9" font-family="sans-serif" font-size="12.00">CF</text>
<polygon fill="white" stroke="transparent" points="419.99,-134.73 419.99,-153.73 435.99,-153.73 435.99,-134.73 419.99,-134.73"/>
<polyline fill="none" stroke="black" points="435.99,-134.73 435.99,-153.73 "/>
<text text-anchor="start" x="422.99" y="-141.13" font-family="sans-serif" font-size="12.00">U</text>
<polygon fill="white" stroke="transparent" points="435.99,-134.73 435.99,-153.73 490.99,-153.73 490.99,-134.73 435.99,-134.73"/>
<polygon fill="none" stroke="black" points="435.99,-134.73 435.99,-153.73 490.99,-153.73 490.99,-134.73 435.99,-134.73"/>
<text text-anchor="start" x="438.99" y="-141.13" font-family="sans-serif" font-size="12.00">OHS, PL</text>
</g>
<!-- PhysicalFilesContext -->
<g id="node4" class="node">
<title>PhysicalFilesContext</title>
<polygon fill="none" stroke="black" stroke-width="2" points="567.42,-371.29 558.38,-370.28 549.55,-369.16 540.97,-367.93 532.66,-366.62 524.66,-365.2 517.01,-363.7 509.73,-362.12 502.86,-360.46 496.42,-358.73 490.43,-356.93 484.92,-355.06 479.9,-353.14 475.39,-351.17 471.42,-349.16 467.97,-347.1 465.07,-345.01 462.72,-342.89 460.93,-340.74 459.68,-338.58 458.98,-336.4 458.83,-334.22 459.21,-332.03 460.11,-329.85 461.53,-327.68 463.44,-325.51 465.83,-323.37 468.68,-321.25 471.97,-319.15 475.68,-317.09 479.78,-315.07 484.25,-313.08 489.07,-311.15 494.21,-309.26 499.64,-307.42 505.34,-305.65 511.28,-303.93 517.44,-302.28 523.79,-300.7 530.3,-299.2 536.96,-297.77 543.73,-296.42 550.6,-295.15 557.54,-293.98 564.53,-292.89 571.56,-291.9 578.6,-291 585.65,-290.2 592.67,-289.5 599.67,-288.9 606.63,-288.41 613.53,-288.03 620.36,-287.76 627.12,-287.6 633.81,-287.55 640.4,-287.61 646.9,-287.79 653.29,-288.09 659.59,-288.49 665.77,-289.02 671.84,-289.66 677.79,-290.41 683.62,-291.27 689.33,-292.25 694.91,-293.34 700.35,-294.53 705.66,-295.83 710.83,-297.24 715.85,-298.74 720.71,-300.34 725.42,-302.03 729.96,-303.82 734.32,-305.68 738.49,-307.62 742.47,-309.64 746.25,-311.73 749.8,-313.87 753.12,-316.08 756.2,-318.33 759.03,-320.63 761.58,-322.96 763.84,-325.32 765.8,-327.71 767.45,-330.1 768.77,-332.51 769.73,-334.92 770.34,-337.31 770.58,-339.7 770.42,-342.06 769.87,-344.38 768.9,-346.68 767.51,-348.92 765.69,-351.11 763.44,-353.25 760.73,-355.31 757.59,-357.3 753.99,-359.22 749.94,-361.04 745.44,-362.78 740.51,-364.42 735.13,-365.96 729.34,-367.39 723.13,-368.71 716.51,-369.91 709.52,-371 702.16,-371.97 694.46,-372.81 686.45,-373.53 678.14,-374.12 669.56,-374.58 660.76,-374.91 651.75,-375.12 642.57,-375.19 633.25,-375.14 623.84,-374.95 614.37,-374.65 604.87,-374.21 595.39,-373.66 585.96,-372.98 576.62,-372.19 567.42,-371.29"/>
<text text-anchor="middle" x="621.99" y="-326.87" font-family="sans-serif" font-size="16.00">PhysicalFilesContext</text>
</g>
<!-- PhysicalFilesContext&#45;&gt;FilesManagementContext -->
<g id="edge4" class="edge">
<title>PhysicalFilesContext&#45;&gt;FilesManagementContext</title>
<path fill="none" stroke="black" stroke-width="2" d="M576.35,-291.08C555.01,-273.03 529.48,-251.43 507.35,-232.72"/>
<text text-anchor="middle" x="597.49" y="-254.38" font-family="sans-serif" font-size="12.00">Customer/Supplier</text>
<polygon fill="white" stroke="transparent" points="500.35,-223.72 500.35,-240.72 514.35,-240.72 514.35,-223.72 500.35,-223.72"/>
<text text-anchor="start" x="502.35" y="-229.12" font-family="sans-serif" font-size="12.00">D</text>
<polygon fill="white" stroke="transparent" points="569.35,-282.08 569.35,-299.08 583.35,-299.08 583.35,-282.08 569.35,-282.08"/>
<text text-anchor="start" x="571.35" y="-287.48" font-family="sans-serif" font-size="12.00">U</text>
</g>
<!-- PhysicalFilesContext&#45;&gt;QueryContext -->
<g id="edge5" class="edge">
<title>PhysicalFilesContext&#45;&gt;QueryContext</title>
<path fill="none" stroke="black" stroke-width="2" d="M646.75,-287.55C650.37,-279.91 653.66,-271.86 655.99,-263.98 665.54,-231.61 663.83,-150.67 658.99,-141.88 638.09,-103.93 596.96,-81.14 557.07,-67.49"/>
<text text-anchor="middle" x="737.49" y="-184.33" font-family="sans-serif" font-size="12.00"> &#160;&#160;&#160;&#160;&#160;&#160;&#160;&#160;&#160;&#160;&#160;&#160;&#160;&#160;&#160;&#160;&#160;&#160;&#160;&#160;&#160;&#160;&#160;&#160;&#160;&#160;&#160;&#160;&#160;&#160;&#160;&#160;&#160;&#160;&#160;&#160;&#160;&#160;&#160;</text>
<polygon fill="white" stroke="transparent" points="538.07,-57.49 538.07,-76.49 554.07,-76.49 554.07,-57.49 538.07,-57.49"/>
<polyline fill="none" stroke="black" points="554.07,-57.49 554.07,-76.49 "/>
<text text-anchor="start" x="541.07" y="-63.89" font-family="sans-serif" font-size="12.00">D</text>
<polygon fill="white" stroke="transparent" points="554.07,-57.49 554.07,-76.49 576.07,-76.49 576.07,-57.49 554.07,-57.49"/>
<polygon fill="none" stroke="black" points="554.07,-57.49 554.07,-76.49 576.07,-76.49 576.07,-57.49 554.07,-57.49"/>
<text text-anchor="start" x="557.07" y="-63.89" font-family="sans-serif" font-size="12.00">CF</text>
<polygon fill="white" stroke="transparent" points="611.75,-277.55 611.75,-296.55 627.75,-296.55 627.75,-277.55 611.75,-277.55"/>
<polyline fill="none" stroke="black" points="627.75,-277.55 627.75,-296.55 "/>
<text text-anchor="start" x="614.75" y="-283.95" font-family="sans-serif" font-size="12.00">U</text>
<polygon fill="white" stroke="transparent" points="627.75,-277.55 627.75,-296.55 682.75,-296.55 682.75,-277.55 627.75,-277.55"/>
<polygon fill="none" stroke="black" points="627.75,-277.55 627.75,-296.55 682.75,-296.55 682.75,-277.55 627.75,-277.55"/>
<text text-anchor="start" x="630.75" y="-283.95" font-family="sans-serif" font-size="12.00">OHS, PL</text>
</g>
</g>
</svg>
